# This file uses centimeters as units for non-parametric coordinates.

mtllib barCT_UV.mtl
g default
v -1.201955 0.019122 13.232647
v -0.847097 0.019122 13.232647
v -1.201955 1.079122 13.232647
v -0.847097 1.079122 13.232647
v -1.201955 1.079122 12.232647
v -0.847097 1.079122 12.232647
v -1.201955 0.019122 12.232647
v -0.847097 0.019122 12.232647
v -1.201955 1.219295 13.232647
v -1.014647 1.219295 13.232647
v -1.014647 1.219295 12.232647
v -1.201955 1.219295 12.232647
v -1.200394 1.321728 13.224314
v -1.016208 1.321728 13.224314
v -1.016208 1.321728 12.240980
v -1.200394 1.321728 12.240980
v -1.352845 1.321728 13.224314
v -0.711864 1.321728 13.224314
v -0.711864 1.321728 12.240980
v -1.352845 1.321728 12.240980
v -1.352845 1.375735 13.224314
v -0.711864 1.375735 13.224314
v -0.711864 1.375735 12.240980
v -1.352845 1.375735 12.240980
vt 0.067685 0.503140
vt 0.069038 0.169131
vt 0.423018 0.170310
vt 0.421896 0.504061
vt 0.495956 0.170567
vt 0.494820 0.504333
vt 0.530149 0.173472
vt 0.529030 0.501677
vt 0.068368 0.956438
vt 0.067194 0.622062
vt 0.420649 0.622211
vt 0.422227 0.955758
vt 0.467267 0.622409
vt 0.469098 0.955406
vt 0.501402 0.624110
vt 0.503354 0.952312
vt 0.943581 0.247329
vt 0.941903 0.726435
vt 0.915589 0.726343
vt 0.917267 0.247237
vt 0.576973 0.725157
vt 0.578651 0.246051
vt 0.604964 0.246143
vt 0.603286 0.725249
vt 0.468478 0.560495
vt 0.502915 0.562266
vt 0.423440 0.051848
vt 0.069478 0.050651
vt 0.470239 0.052016
vt 0.470013 0.114548
vt 0.504548 0.052662
vt 0.504325 0.114152
vt 0.605057 0.219829
vt 0.917359 0.220923
vt 0.915497 0.752656
vt 0.603194 0.751563
vn 0.000000 0.000000 1.000000
vn 0.000000 0.000000 1.000000
vn 0.000000 0.000000 1.000000
vn 0.000000 0.000000 1.000000
vn 0.000000 1.000000 0.000000
vn 0.000000 1.000000 0.000000
vn 0.000000 1.000000 0.000000
vn 0.000000 1.000000 0.000000
vn 0.000000 0.000000 -1.000000
vn 0.000000 0.000000 -1.000000
vn 0.000000 0.000000 -1.000000
vn 0.000000 0.000000 -1.000000
vn 1.000000 0.000000 0.000000
vn 1.000000 0.000000 0.000000
vn 0.990395 0.138265 0.000000
vn 0.990395 0.138265 0.000000
vn -1.000000 0.000000 0.000000
vn -1.000000 0.000000 0.000000
vn -1.000000 0.000000 0.000000
vn -1.000000 0.000000 0.000000
vn 0.000000 0.019652 0.999807
vn 0.000000 0.026958 0.999637
vn 0.641661 0.766988 0.000000
vn 0.641661 0.766988 0.000000
vn 0.000000 0.026958 -0.999637
vn 0.000000 0.019652 -0.999807
vn -0.999981 0.006207 0.000000
vn -0.999981 0.006207 0.000000
vn 0.000000 0.081084 0.996707
vn 0.000000 0.081084 0.996707
vn 0.999884 0.015236 0.000000
vn 0.999884 0.015236 0.000000
vn 0.999884 0.015236 0.000000
vn 0.999884 0.015236 0.000000
vn 0.000000 0.081084 -0.996707
vn 0.000000 0.081084 -0.996707
vn -0.999884 0.015236 0.000000
vn -0.999884 0.015236 0.000000
vn 0.000000 0.000000 -1.000000
vn 0.000000 0.000000 -1.000000
vn 0.000000 0.000000 -0.000000
vn 0.000000 0.000000 -0.000000
vn 0.000000 -1.000000 0.000000
vn 0.000000 -1.000000 0.000000
vn 0.000000 -1.000000 0.000000
vn 0.000000 -1.000000 0.000000
vn 0.000000 0.000000 1.000000
vn 0.000000 0.000000 1.000000
vn 0.000000 0.000000 0.000000
vn 0.000000 0.000000 0.000000
vn 0.000000 -1.000000 0.000000
vn 0.000000 -1.000000 0.000000
vn 0.000000 -1.000000 0.000000
vn 0.000000 -1.000000 0.000000
vn 0.000000 0.000000 1.000000
vn 0.000000 0.000000 1.000000
vn 0.000000 0.000000 1.000000
vn 0.000000 0.000000 1.000000
vn 1.000000 0.000000 0.000000
vn 1.000000 0.000000 0.000000
vn 1.000000 0.000000 0.000000
vn 1.000000 0.000000 0.000000
vn 0.000000 0.000000 -1.000000
vn 0.000000 0.000000 -1.000000
vn 0.000000 0.000000 -1.000000
vn 0.000000 0.000000 -1.000000
vn -1.000000 0.000000 0.000000
vn -1.000000 0.000000 0.000000
vn -1.000000 0.000000 0.000000
vn -1.000000 0.000000 0.000000
s 1
g Bar_l Bar
usemtl initialShadingGroup
f 1/10/1 2/1/2 4/4/3 3/11/4
s off
f 21/23/5 22/20/6 23/19/7 24/24/8
s 2
f 5/27/9 6/3/10 8/2/11 7/28/12
s 3
f 2/1/13 8/2/14 6/3/15 4/4/16
s 4
f 7/9/17 1/10/18 3/11/19 5/12/20
s 1
f 3/11/4 4/4/3 10/25/21 9/13/22
s 3
f 4/4/16 6/3/15 11/5/23 10/6/24
s 2
f 6/3/10 5/27/9 12/29/25 11/30/26
s 4
f 5/12/20 3/11/19 9/13/27 12/14/28
s 1
f 9/13/22 10/25/21 14/26/29 13/15/30
s off
f 10/6/31 11/5/32 15/7/33 14/8/34
s 2
f 11/30/26 12/29/25 16/31/35 15/32/36
s 4
f 12/14/28 9/13/27 13/15/37 16/16/38
s off
f 13//39 14//40 18//41 17//42
f 14//43 15//44 19//45 18//46
f 15//47 16//48 20//49 19//50
f 16//51 13//52 17//53 20//54
f 17/33/55 18/34/56 22/20/57 21/23/58
f 18/17/59 19/18/60 23/19/61 22/20/62
f 19/35/63 20/36/64 24/24/65 23/19/66
f 20/21/67 17/22/68 21/23/69 24/24/70
