# This file uses centimeters as units for non-parametric coordinates.

mtllib chair_UV.mtl
g default
v -3.938446 0.033176 6.387023
v -3.491198 0.033176 6.387023
v -3.938446 0.714884 6.387023
v -3.213320 0.714884 6.387023
v -3.938446 0.714884 5.705315
v -3.213320 0.714884 5.705315
v -3.938446 0.033176 5.705315
v -3.491198 0.033176 5.705315
v -3.802105 0.033176 6.387023
v -3.802105 0.714884 6.387023
v -3.802105 0.714884 5.705315
v -3.802105 0.033176 5.705315
v -4.058433 1.438670 6.485881
v -3.922092 1.438670 6.485881
v -3.922092 1.438670 5.606456
v -4.058433 1.438670 5.606456
v -3.938446 0.714884 6.046169
v -3.938446 0.033176 6.046169
v -3.802105 0.033176 6.046169
v -3.491198 0.033176 6.046169
v -3.213320 0.714884 6.046169
v -3.802105 0.714884 6.046169
v -4.019197 1.438670 6.046169
v -4.155538 1.438670 6.046169
vt 0.303468 0.702328
vt 0.425142 0.702328
vt 0.425142 0.945674
vt 0.303468 0.945674
vt 0.546815 0.702328
vt 0.546815 0.945674
vt 0.520674 0.322594
vt 0.520674 0.079247
vt 0.642347 0.079247
vt 0.642347 0.322594
vt 0.399001 0.079247
vt 0.399001 0.322594
vt 0.520674 0.580960
vt 0.677637 0.580960
vt 0.363712 0.580960
vt 0.603962 0.937297
vt 0.603962 0.815624
vt 0.862329 0.815624
vt 0.862329 0.972586
vt 0.603962 0.693951
vt 0.862329 0.658662
vt 0.926354 0.658662
vt 0.975023 0.658662
vt 0.940360 0.815624
vt 0.891691 0.815624
vt 0.975023 0.972586
vt 0.926354 0.972586
vt 0.163029 0.518339
vt 0.211698 0.518339
vt 0.211698 0.640012
vt 0.163029 0.640012
vt 0.163029 0.396666
vt 0.211698 0.396666
vt 0.322681 0.518339
vt 0.322681 0.640012
vt 0.322681 0.396666
vt 0.259100 0.842746
vt 0.048924 0.842746
vt 0.048924 0.721073
vt 0.259100 0.721073
vt 0.048924 0.964419
vt 0.259100 0.964419
vt 0.088397 0.069171
vt 0.137065 0.069171
vt 0.137065 0.312517
vt 0.088397 0.312517
vt 0.248049 0.069171
vt 0.347241 0.312517
vt 0.094234 0.570883
vt 0.045565 0.570883
vt 0.932152 0.319317
vt 0.883483 0.319280
vt 0.883668 0.075934
vt 0.932337 0.075971
vt 0.974788 0.577715
vt 0.926119 0.577679
vt 0.673308 0.319120
vt 0.772685 0.075849
vn 0.000000 0.000000 1.000000
vn 0.000000 0.000000 1.000000
vn 0.000000 -0.024747 0.999694
vn 0.000000 -0.073495 0.997296
vn 0.000000 1.000000 0.000000
vn 0.000000 1.000000 0.000000
vn 0.000000 1.000000 -0.000000
vn 0.000000 1.000000 -0.000000
vn 0.000000 -0.073495 -0.997296
vn 0.000000 -0.024747 -0.999694
vn 0.000000 0.000000 -1.000000
vn 0.000000 0.000000 -1.000000
vn 0.000000 -1.000000 0.000000
vn 0.000000 -1.000000 0.000000
vn 0.000000 -1.000000 0.000000
vn 0.000000 -1.000000 0.000000
vn 0.926024 -0.377465 0.000000
vn 0.926024 -0.377465 0.000000
vn 0.926024 -0.377465 0.000000
vn 0.926024 -0.377465 0.000000
vn -0.991346 -0.131279 0.000000
vn -1.000000 0.000000 0.000000
vn -1.000000 0.000000 0.000000
vn -0.988281 -0.135684 0.069937
vn 0.000000 0.000000 1.000000
vn 0.000000 0.000000 1.000000
vn 0.000000 1.000000 0.000000
vn 0.000000 1.000000 0.000000
vn 0.000000 1.000000 0.000000
vn 0.000000 1.000000 0.000000
vn 0.000000 0.000000 -1.000000
vn 0.000000 0.000000 -1.000000
vn 0.000000 -1.000000 0.000000
vn 0.000000 -1.000000 0.000000
vn 0.000000 -0.135329 0.990801
vn 0.000000 -0.135329 0.990801
vn 0.965057 0.232921 -0.120056
vn 0.972088 0.234617 0.000000
vn 0.972088 0.234617 0.000000
vn 0.965057 0.232920 -0.120056
vn 0.000000 -0.135329 -0.990801
vn 0.000000 -0.135329 -0.990801
vn -0.972088 -0.234617 0.000000
vn -0.965057 -0.232921 0.120056
vn -1.000000 0.000000 0.000000
vn -0.988281 -0.135684 -0.069937
vn 0.000000 -1.000000 0.000000
vn 0.000000 -1.000000 0.000000
vn 0.000000 -1.000000 0.000000
vn 0.926024 -0.377465 0.000000
vn 0.926024 -0.377465 0.000000
vn 0.000000 1.000000 0.000000
vn 0.000000 1.000000 0.000000
vn 0.965057 0.232921 0.120056
vn 0.965057 0.232920 0.120056
vn 0.000000 1.000000 -0.000000
vn 0.000000 1.000000 -0.000000
vn -0.965057 -0.232921 -0.120056
s 1
g Chair TableChair
usemtl initialShadingGroup
f 1/43/1 9/44/2 10/45/3 3/46/4
s 2
f 13/22/5 14/23/6 23/24/7 24/25/8
s 3
f 5/51/9 11/52/10 12/53/11 7/54/12
s 4
f 18/28/13 19/29/14 9/30/15 1/31/16
s 5
f 2/1/17 20/2/18 21/3/19 4/4/20
s 6
f 17/7/21 18/8/22 1/9/23 3/10/24
s 1
f 10/45/3 9/44/2 2/47/25 4/48/26
s 7
f 21/37/27 22/38/28 10/39/29 4/40/30
s 3
f 12/53/11 11/52/10 6/57/31 8/58/32
s 4
f 9/30/15 19/29/14 20/34/33 2/35/34
s 1
f 3/46/4 10/45/3 14/49/35 13/50/36
s 8
f 10/16/37 22/17/38 23/18/39 14/19/40
s 3
f 11/52/10 5/51/9 16/55/41 15/56/42
s 6
f 24/13/43 17/7/21 3/10/24 13/14/44
f 7/11/45 18/8/22 17/7/21 5/12/46
s 4
f 7/32/47 12/33/48 19/29/14 18/28/13
f 20/34/33 19/29/14 12/33/48 8/36/49
s 5
f 21/3/19 20/2/18 8/5/50 6/6/51
s 7
f 11/41/52 22/38/28 21/37/27 6/42/53
s 8
f 23/18/39 22/17/38 11/20/54 15/21/55
s 2
f 24/25/8 23/24/7 15/26/56 16/27/57
s 6
f 5/12/46 17/7/21 24/13/43 16/15/58
