# This file uses centimeters as units for non-parametric coordinates.

mtllib Door_sm_UV.mtl
g default
v 4.305818 0.071326 6.515826
v 2.733685 0.071326 6.515826
v 4.305818 2.401376 6.515826
v 2.733685 2.401376 6.515826
v 4.305818 2.401375 6.577191
v 2.733685 2.401375 6.577191
v 4.305818 0.071326 6.577191
v 2.733685 0.071326 6.577191
vt 0.544600 0.290960
vt 0.968615 0.290960
vt 0.968615 0.926982
vt 0.544600 0.926982
vt 0.541047 0.286387
vt 0.965061 0.286387
vt 0.965061 0.922409
vt 0.541047 0.922409
vn -0.000000 0.000000 -1.000000
vn -0.000000 0.000000 -1.000000
vn -0.000000 0.000000 -1.000000
vn -0.000000 0.000000 -1.000000
vn 0.000000 1.000000 0.000009
vn 0.000000 1.000000 0.000009
vn 0.000000 1.000000 0.000009
vn 0.000000 1.000000 0.000009
vn 0.000000 0.000000 1.000000
vn 0.000000 0.000000 1.000000
vn 0.000000 0.000000 1.000000
vn 0.000000 0.000000 1.000000
vn 0.000000 -1.000000 0.000000
vn 0.000000 -1.000000 0.000000
vn 0.000000 -1.000000 0.000000
vn 0.000000 -1.000000 0.000000
vn -1.000000 0.000000 0.000000
vn -1.000000 0.000000 0.000000
vn -1.000000 0.000000 0.000000
vn -1.000000 0.000000 0.000000
vn 1.000000 0.000000 -0.000000
vn 1.000000 0.000000 -0.000000
vn 1.000000 0.000000 -0.000000
vn 1.000000 0.000000 -0.000000
s off
g StraightWall16 StraightWall
usemtl initialShadingGroup
f 1/1/1 2/2/2 4/3/3 3/4/4
f 3//5 4//6 6//7 5//8
f 5/5/9 6/6/10 8/7/11 7/8/12
f 7//13 8//14 2//15 1//16
f 2//17 8//18 6//19 4//20
f 7//21 1//22 3//23 5//24
g default
v 5.048616 2.393593 6.471509
v 3.048616 2.393593 6.471509
v 5.048616 3.044986 6.471509
v 3.048616 3.044986 6.471509
v 5.048616 3.044986 6.621508
v 3.048616 3.044986 6.621508
v 5.048616 2.393593 6.621508
v 3.048616 2.393593 6.621508
v 3.372206 2.393593 6.471509
v 3.372206 3.044986 6.471509
v 3.372206 3.044986 6.621508
v 3.372206 2.393593 6.621508
v 4.744909 2.393593 6.471509
v 4.744909 3.044986 6.471509
v 4.744909 3.044986 6.621508
v 4.744909 2.393593 6.621508
v 5.048616 0.071281 6.621508
v 4.744909 0.071281 6.621508
v 4.744909 0.071281 6.471509
v 5.048616 0.071281 6.471509
v 3.372206 0.071281 6.621508
v 3.372206 0.071281 6.471509
v 3.048616 0.071281 6.621508
v 3.048616 0.071281 6.471509
vt 0.051895 0.793757
vt 0.119583 0.793826
vt 0.119436 0.939003
vt 0.051748 0.938935
vt 0.052420 0.276177
vt 0.120108 0.276246
vt 0.425522 0.794136
vt 0.425374 0.939314
vt 0.497641 0.794209
vt 0.497494 0.939387
vt 0.426046 0.276556
vt 0.498166 0.276629
vt 0.493502 0.938749
vt 0.425424 0.938865
vt 0.425173 0.792852
vt 0.493251 0.792735
vt 0.117724 0.939393
vt 0.117474 0.793379
vt 0.424281 0.272291
vt 0.492359 0.272175
vt 0.045189 0.939517
vt 0.044939 0.793504
vt 0.044047 0.272943
vt 0.116581 0.272819
vn -0.000000 0.000000 -1.000000
vn -0.000000 0.000000 -1.000000
vn -0.000000 0.000000 -1.000000
vn -0.000000 0.000000 -1.000000
vn -0.000000 1.000000 0.000000
vn -0.000000 1.000000 0.000000
vn -0.000000 1.000000 0.000000
vn -0.000000 1.000000 0.000000
vn 0.000000 0.000000 1.000000
vn 0.000000 0.000000 1.000000
vn 0.000000 0.000000 1.000000
vn 0.000000 0.000000 1.000000
vn -1.000000 0.000000 0.000000
vn -1.000000 0.000000 0.000000
vn -1.000000 0.000000 0.000000
vn -1.000000 0.000000 0.000000
vn 1.000000 0.000000 -0.000000
vn 1.000000 0.000000 -0.000000
vn 1.000000 0.000000 -0.000000
vn 1.000000 0.000000 -0.000000
vn -0.000000 0.000000 -1.000000
vn -0.000000 0.000000 -1.000000
vn -0.000000 0.000000 -1.000000
vn -0.000000 0.000000 -1.000000
vn -0.000000 1.000000 0.000000
vn -0.000000 1.000000 0.000000
vn -0.000000 1.000000 0.000000
vn -0.000000 1.000000 0.000000
vn 0.000000 0.000000 1.000000
vn 0.000000 0.000000 1.000000
vn 0.000000 0.000000 1.000000
vn 0.000000 0.000000 1.000000
vn 0.000000 0.000000 1.000000
vn 0.000000 0.000000 1.000000
vn -0.000000 0.000000 -1.000000
vn -0.000000 0.000000 -1.000000
vn 1.000000 0.000000 -0.000000
vn 1.000000 0.000000 -0.000000
vn 0.000000 0.000000 1.000000
vn 0.000000 0.000000 1.000000
vn -1.000000 0.000000 0.000000
vn -1.000000 0.000000 0.000000
vn -0.000000 0.000000 -1.000000
vn -0.000000 0.000000 -1.000000
s 1
g StraightWall StraightWall9
usemtl initialShadingGroup
f 9/9/25 21/10/26 22/11/27 11/12/28
s 2
f 11//29 22//30 23//31 13//32
s 3
f 13/21/33 23/22/34 24/23/35 15/24/36
s 4
f 10//37 16//38 14//39 12//40
s 5
f 15//41 9//42 11//43 13//44
s 1
f 18/16/45 17/15/46 10/17/47 12/18/48
s 2
f 19//49 18//50 12//51 14//52
s 3
f 20/26/53 19/25/54 14/29/55 16/30/56
s 1
f 22/11/27 21/10/26 17/15/46 18/16/45
s 2
f 23//31 22//30 18//50 19//49
s 3
f 24/23/35 23/22/34 19/25/54 20/26/53
f 15/24/36 24/23/35 26/27/57 25/28/58
s 1
f 21/10/26 9/9/25 28/13/59 27/14/60
s 5
f 9//42 15//41 25//61 28//62
s 3
f 20/26/53 16/30/56 31/31/63 29/32/64
s 4
f 16//38 10//37 32//65 31//66
s 1
f 10/17/47 17/15/46 30/19/67 32/20/68
