# This file uses centimeters as units for non-parametric coordinates.

mtllib StraightWall_UV.mtl
g default
v 5.061563 0.056022 0.075000
v 7.061563 0.056022 0.075000
v 5.061563 3.056022 0.075000
v 7.061563 3.056022 0.075000
v 5.061563 3.056022 -0.075000
v 7.061563 3.056022 -0.075000
v 5.061563 0.056022 -0.075000
v 7.061563 0.056022 -0.075000
vt 0.045746 0.024942
vt 0.498422 0.024930
vt 0.045764 0.703955
vt 0.498440 0.703943
vt 0.985066 0.703930
vt 0.498441 0.737894
vt 0.985047 0.024917
vt 0.532372 0.024929
vt 0.532390 0.703942
vt 0.011796 0.024943
vt 0.011814 0.703956
vt 0.045765 0.737906
vn 0.000000 0.000000 1.000000
vn 0.000000 0.000000 1.000000
vn 0.000000 0.000000 1.000000
vn 0.000000 0.000000 1.000000
vn 0.000000 1.000000 0.000000
vn 0.000000 1.000000 0.000000
vn 0.000000 1.000000 0.000000
vn 0.000000 1.000000 0.000000
vn 0.000000 0.000000 -1.000000
vn 0.000000 0.000000 -1.000000
vn 0.000000 0.000000 -1.000000
vn 0.000000 0.000000 -1.000000
vn 1.000000 0.000000 0.000000
vn 1.000000 0.000000 0.000000
vn 1.000000 0.000000 0.000000
vn 1.000000 0.000000 0.000000
vn -1.000000 0.000000 0.000000
vn -1.000000 0.000000 0.000000
vn -1.000000 0.000000 0.000000
vn -1.000000 0.000000 0.000000
s off
g StraightWall_02 StraightWall
usemtl initialShadingGroup
f 3/3/1 1/1/2 2/2/3 4/4/4
f 3/3/5 4/4/6 6/6/7 5/12/8
f 8/8/9 7/7/10 5/5/11 6/9/12
f 2/2/13 8/8/14 6/9/15 4/4/16
f 7/10/17 1/1/18 3/3/19 5/11/20
