# This file uses centimeters as units for non-parametric coordinates.

mtllib CurvedWall_UV.mtl
g default
v 5.061563 0.056022 -7.791655
v 7.061563 0.056022 -7.791655
v 5.061563 3.056022 -7.791655
v 7.061563 3.056022 -7.791655
v 5.061563 3.056022 -7.941655
v 7.061563 3.056022 -7.941655
v 5.061563 0.056022 -7.941655
v 7.061563 0.056022 -7.941655
v 5.061563 0.685743 -8.188335
v 5.061563 0.685743 -8.338335
v 7.061563 0.685743 -8.338335
v 7.061563 0.685743 -8.188335
v 5.061563 2.444030 -8.338335
v 5.061563 2.444030 -8.188335
v 7.061563 2.444030 -8.188335
v 7.061563 2.444030 -8.338335
vt 0.375000 0.000000
vt 0.625000 0.000000
vt 0.625000 0.052477
vt 0.375000 0.052477
vt 0.375000 0.250000
vt 0.625000 0.250000
vt 0.625000 0.500000
vt 0.375000 0.500000
vt 0.375000 0.697523
vt 0.625000 0.697523
vt 0.625000 0.750000
vt 0.375000 0.750000
vt 0.625000 1.000000
vt 0.375000 1.000000
vt 0.875000 0.000000
vt 0.875000 0.052477
vt 0.125000 0.000000
vt 0.125000 0.052477
vt 0.125000 0.199001
vt 0.375000 0.199001
vt 0.125000 0.250000
vt 0.625000 0.550999
vt 0.375000 0.550999
vt 0.625000 0.199001
vt 0.875000 0.199001
vt 0.875000 0.250000
vn 0.000000 0.532995 0.846118
vn 0.000000 0.532995 0.846118
vn 0.000000 0.532995 0.846118
vn 0.000000 0.532995 0.846118
vn 0.000000 1.000000 0.000000
vn 0.000000 1.000000 0.000000
vn 0.000000 1.000000 0.000000
vn 0.000000 1.000000 0.000000
vn 0.000000 -0.163868 -0.986482
vn 0.000000 -0.163868 -0.986482
vn 0.000000 -0.532995 -0.846119
vn 0.000000 -0.532995 -0.846119
vn 0.000000 -1.000000 0.000000
vn 0.000000 -1.000000 0.000000
vn 0.000000 -1.000000 0.000000
vn 0.000000 -1.000000 0.000000
vn 1.000000 -0.000000 0.000000
vn 1.000000 -0.000000 0.000000
vn 1.000000 -0.000000 0.000000
vn 1.000000 -0.000000 0.000000
vn -1.000000 0.000000 0.000000
vn -1.000000 0.000000 0.000000
vn -1.000000 0.000000 0.000000
vn -1.000000 0.000000 0.000000
vn -1.000000 0.000000 0.000000
vn -1.000000 0.000000 0.000000
vn -1.000000 0.000000 0.000000
vn -1.000000 0.000000 0.000000
vn 0.000000 0.543913 -0.839142
vn 0.000000 0.543913 -0.839142
vn 0.000000 0.165060 -0.986284
vn 0.000000 0.165060 -0.986284
vn 1.000000 0.000000 0.000000
vn 1.000000 0.000000 0.000000
vn 1.000000 0.000000 0.000000
vn 1.000000 0.000000 0.000000
vn 0.000000 -0.165060 0.986284
vn 0.000000 -0.165060 0.986284
vn 0.000000 -0.543913 0.839142
vn 0.000000 -0.543913 0.839142
vn -1.000000 0.000000 0.000000
vn -1.000000 0.000000 0.000000
vn -1.000000 0.000000 0.000000
vn -1.000000 0.000000 0.000000
vn 0.000000 0.163868 0.986482
vn 0.000000 0.163868 0.986482
vn 0.000000 -0.165060 0.986284
vn 0.000000 -0.165060 0.986284
vn 1.000000 -0.000000 0.000000
vn 1.000000 -0.000000 0.000000
vn 1.000000 0.000000 0.000000
vn 1.000000 0.000000 0.000000
vn 0.000000 0.165060 -0.986284
vn 0.000000 0.165060 -0.986284
vn 0.000000 -0.163868 -0.986482
vn 0.000000 -0.163868 -0.986482
s off
g CurvedWall_UV:CurvedWallCurvedWall_R_02
usemtl CurvedWall_UV:initialShadingGroup
f 1/1/1 2/2/2 12/3/3 9/4/4
f 3/5/5 4/6/6 6/7/7 5/8/8
f 10/9/9 11/10/10 8/11/11 7/12/12
f 7/12/13 8/11/14 2/13/15 1/14/16
f 2/2/17 8/15/18 11/16/19 12/3/20
f 7/17/21 1/1/22 9/4/23 10/18/24
f 13/19/25 14/20/26 3/5/27 5/21/28
f 5/8/29 6/7/30 16/22/31 13/23/32
f 15/24/33 16/25/34 6/26/35 4/6/36
f 14/20/37 15/24/38 4/6/39 3/5/40
f 10/18/41 9/4/42 14/20/43 13/19/44
f 9/4/45 12/3/46 15/24/47 14/20/48
f 12/3/49 11/16/50 16/25/51 15/24/52
f 13/23/53 16/22/54 11/10/55 10/9/56
