# This file uses centimeters as units for non-parametric coordinates.

mtllib Shelf.mtl
g default
v 5.417678 1.109523 0.616673
v 6.695274 1.109523 0.616673
v 5.417678 2.469958 0.616673
v 6.695274 2.469958 0.616673
v 5.417678 2.469958 0.151422
v 6.695274 2.469958 0.151422
v 5.417678 1.109523 0.151422
v 6.695274 1.109523 0.151422
v 5.487922 1.184321 0.616673
v 6.625031 1.184321 0.616673
v 6.625031 2.395160 0.616673
v 5.487922 2.395160 0.616673
v 6.625031 1.552086 0.616673
v 5.487922 1.552086 0.616673
v 5.487922 1.962994 0.616673
v 6.625031 1.962994 0.616673
v 5.487922 2.013460 0.616673
v 6.625031 2.013460 0.616673
v 6.625031 1.596172 0.616673
v 5.487922 1.596172 0.616673
v 5.487922 1.184321 0.183159
v 6.625031 1.184321 0.183159
v 6.625031 1.552086 0.183159
v 5.487922 1.552086 0.183159
v 5.487922 2.013460 0.183159
v 6.625031 2.013460 0.183159
v 6.625031 2.395160 0.183159
v 5.487922 2.395160 0.183159
v 6.625031 1.596172 0.183159
v 5.487922 1.596172 0.183159
v 6.625031 1.962994 0.183159
v 5.487922 1.962994 0.183159
vt 0.323612 0.628508
vt 0.323860 0.424538
vt 0.389828 0.424618
vt 0.389580 0.628589
vt 0.017483 0.292858
vt 0.019401 0.102018
vt 0.088897 0.102716
vt 0.086980 0.293557
vt 0.292112 0.104758
vt 0.290194 0.295599
vt 0.361609 0.105457
vt 0.359691 0.296297
vt 0.292810 0.035262
vt 0.089596 0.033219
vt 0.289496 0.365096
vt 0.086281 0.363054
vt 0.035156 0.688516
vt 0.306974 0.688516
vt 0.292029 0.703460
vt 0.050101 0.703460
vt 0.292029 0.785749
vt 0.292029 0.776940
vt 0.306974 0.960333
vt 0.292029 0.945388
vt 0.292029 0.869124
vt 0.292029 0.859041
vt 0.035156 0.960333
vt 0.050101 0.945388
vt 0.050101 0.776940
vt 0.050101 0.785749
vt 0.050101 0.859041
vt 0.050101 0.869124
vt 0.320307 0.629755
vt 0.319909 0.429323
vt 0.387189 0.429189
vt 0.387587 0.629621
vt 0.322875 0.627675
vt 0.323225 0.425970
vt 0.388293 0.426082
vt 0.387943 0.627788
vt 0.245850 0.628414
vt 0.246098 0.424443
vt 0.323954 0.346776
vt 0.389923 0.346856
vt 0.467590 0.424713
vt 0.467342 0.628683
vt 0.389486 0.706351
vt 0.323517 0.706271
vt 0.243894 0.629907
vt 0.243495 0.429475
vt 0.319757 0.352910
vt 0.387037 0.352776
vt 0.463602 0.429037
vt 0.464000 0.629469
vt 0.387739 0.706034
vt 0.320459 0.706168
vt 0.245976 0.627542
vt 0.246326 0.425836
vt 0.323358 0.349071
vt 0.388427 0.349184
vt 0.465192 0.426216
vt 0.464842 0.627922
vt 0.387810 0.704687
vt 0.322741 0.704574
vn 0.000000 0.000000 1.000000
vn 0.000000 0.000000 1.000000
vn 0.000000 0.000000 1.000000
vn 0.000000 0.000000 1.000000
vn 0.000000 1.000000 0.000000
vn 0.000000 1.000000 0.000000
vn 0.000000 1.000000 0.000000
vn 0.000000 1.000000 0.000000
vn 0.000000 0.000000 -1.000000
vn 0.000000 0.000000 -1.000000
vn 0.000000 0.000000 -1.000000
vn 0.000000 0.000000 -1.000000
vn 0.000000 -1.000000 0.000000
vn 0.000000 -1.000000 0.000000
vn 0.000000 -1.000000 0.000000
vn 0.000000 -1.000000 0.000000
vn 1.000000 0.000000 0.000000
vn 1.000000 0.000000 0.000000
vn 1.000000 0.000000 0.000000
vn 1.000000 0.000000 0.000000
vn -1.000000 0.000000 0.000000
vn -1.000000 0.000000 0.000000
vn -1.000000 0.000000 0.000000
vn -1.000000 0.000000 0.000000
vn 0.000000 0.000000 1.000000
vn 0.000000 0.000000 1.000000
vn 0.000000 0.000000 1.000000
vn 0.000000 0.000000 1.000000
vn 0.000000 0.000000 1.000000
vn 0.000000 0.000000 1.000000
vn 0.000000 0.000000 1.000000
vn 0.000000 0.000000 1.000000
vn 0.000000 0.000000 1.000000
vn 0.000000 0.000000 1.000000
vn 0.000000 0.000000 1.000000
vn 0.000000 0.000000 1.000000
vn 0.000000 0.000000 1.000000
vn 0.000000 0.000000 1.000000
vn 0.000000 0.000000 1.000000
vn 0.000000 0.000000 1.000000
vn 0.000000 0.000000 1.000000
vn 0.000000 0.000000 1.000000
vn 0.000000 0.000000 1.000000
vn 0.000000 0.000000 1.000000
vn 0.000000 0.000000 1.000000
vn 0.000000 0.000000 1.000000
vn 0.000000 0.000000 1.000000
vn 0.000000 0.000000 1.000000
vn 0.000000 0.000000 1.000000
vn 0.000000 0.000000 1.000000
vn 0.000000 0.000000 1.000000
vn 0.000000 0.000000 1.000000
vn 0.000000 0.000000 1.000000
vn 0.000000 0.000000 1.000000
vn 0.000000 0.000000 1.000000
vn 0.000000 0.000000 1.000000
vn 0.000000 0.000000 1.000000
vn 0.000000 0.000000 1.000000
vn 0.000000 0.000000 1.000000
vn 0.000000 0.000000 1.000000
vn 0.000000 0.000000 1.000000
vn 0.000000 0.000000 1.000000
vn 0.000000 0.000000 1.000000
vn 0.000000 0.000000 1.000000
vn 0.000000 1.000000 0.000000
vn 0.000000 1.000000 0.000000
vn 0.000000 1.000000 0.000000
vn 0.000000 1.000000 0.000000
vn -1.000000 0.000000 0.000000
vn -1.000000 0.000000 0.000000
vn -1.000000 0.000000 0.000000
vn -1.000000 0.000000 0.000000
vn 0.000000 -1.000000 0.000000
vn 0.000000 -1.000000 0.000000
vn 0.000000 -1.000000 0.000000
vn 0.000000 -1.000000 0.000000
vn 1.000000 0.000000 0.000000
vn 1.000000 0.000000 0.000000
vn 1.000000 0.000000 0.000000
vn 1.000000 0.000000 0.000000
vn 0.000000 1.000000 0.000000
vn 0.000000 1.000000 0.000000
vn 0.000000 1.000000 0.000000
vn 0.000000 1.000000 0.000000
vn -1.000000 0.000000 0.000000
vn -1.000000 0.000000 0.000000
vn -1.000000 0.000000 0.000000
vn -1.000000 0.000000 0.000000
vn 0.000000 -1.000000 0.000000
vn 0.000000 -1.000000 0.000000
vn 0.000000 -1.000000 0.000000
vn 0.000000 -1.000000 0.000000
vn 1.000000 0.000000 0.000000
vn 1.000000 0.000000 0.000000
vn 1.000000 0.000000 0.000000
vn 1.000000 0.000000 0.000000
vn 0.000000 1.000000 0.000000
vn 0.000000 1.000000 0.000000
vn 0.000000 1.000000 0.000000
vn 0.000000 1.000000 0.000000
vn -1.000000 0.000000 0.000000
vn -1.000000 0.000000 0.000000
vn -1.000000 0.000000 0.000000
vn -1.000000 0.000000 0.000000
vn 0.000000 -1.000000 0.000000
vn 0.000000 -1.000000 0.000000
vn 0.000000 -1.000000 0.000000
vn 0.000000 -1.000000 0.000000
vn 1.000000 0.000000 0.000000
vn 1.000000 0.000000 0.000000
vn 1.000000 0.000000 0.000000
vn 1.000000 0.000000 0.000000
s off
g shelfBar_UV:shelf_Barshelf
usemtl shelfBar_UV:initialShadingGroup
f 21/1/1 22/2/2 23/3/3 24/4/4
f 3/5/5 4/6/6 6/7/7 5/8/8
f 8/9/9 7/10/10 5/8/11 6/7/12
f 7/10/13 8/9/14 2/11/15 1/12/16
f 2/13/17 8/9/18 6/7/19 4/14/20
f 7/10/21 1/15/22 3/16/23 5/8/24
f 1/17/25 2/18/26 10/19/27 9/20/28
f 19/21/29 13/22/30 10/19/31 2/18/32 4/23/33 11/24/34 18/25/35 16/26/36
f 4/23/37 3/27/38 12/28/39 11/24/40
f 3/27/41 1/17/42 9/20/43 14/29/44 20/30/45 15/31/46 17/32/47 12/28/48
f 25/33/49 26/34/50 27/35/51 28/36/52
f 14/29/53 13/22/54 19/21/55 20/30/56
f 15/31/57 16/26/58 18/25/59 17/32/60
f 30/37/61 29/38/62 31/39/63 32/40/64
f 9/41/65 10/42/66 22/2/67 21/1/68
f 10/43/69 13/44/70 23/3/71 22/2/72
f 13/45/73 14/46/74 24/4/75 23/3/76
f 14/47/77 9/48/78 21/1/79 24/4/80
f 17/49/81 18/50/82 26/34/83 25/33/84
f 18/51/85 11/52/86 27/35/87 26/34/88
f 11/53/89 12/54/90 28/36/91 27/35/92
f 12/55/93 17/56/94 25/33/95 28/36/96
f 20/57/97 19/58/98 29/38/99 30/37/100
f 19/59/101 16/60/102 31/39/103 29/38/104
f 16/61/105 15/62/106 32/40/107 31/39/108
f 15/63/109 20/64/110 30/37/111 32/40/112
