# This file uses centimeters as units for non-parametric coordinates.

mtllib table_UV.mtl
g default
v -1.729360 0.018268 5.706710
v -2.068818 0.018268 5.566101
v -2.408278 0.018268 5.706710
v -2.548885 0.018268 6.046169
v -2.408278 0.018268 6.385627
v -2.068818 0.018268 6.526236
v -1.729360 0.018268 6.385627
v -1.588751 0.018268 6.046169
v -1.729360 1.091966 5.706710
v -2.068818 1.091966 5.566101
v -2.408278 1.091966 5.706710
v -2.548885 1.091966 6.046169
v -2.408278 1.091966 6.385627
v -2.068818 1.091966 6.526236
v -1.729360 1.091966 6.385627
v -1.588751 1.091966 6.046169
v -1.100726 1.091966 5.078076
v -2.068818 1.091966 4.677079
v -3.036912 1.091966 5.078076
v -3.437909 1.091966 6.046169
v -3.036912 1.091966 7.014261
v -2.068818 1.091966 7.415258
v -1.100726 1.091966 7.014261
v -0.699728 1.091966 6.046169
v -1.100726 1.169561 5.078076
v -2.068818 1.169561 4.677079
v -2.068818 1.169561 6.046169
v -3.036912 1.169561 5.078076
v -3.437909 1.169561 6.046169
v -3.036912 1.169561 7.014261
v -2.068818 1.169561 7.415258
v -1.100726 1.169561 7.014261
v -0.699728 1.169561 6.046169
vt 0.042322 0.329217
vt 0.042444 0.222787
vt 0.353453 0.223143
vt 0.353331 0.329572
vt 0.042565 0.116358
vt 0.353574 0.116713
vt 0.041837 0.754935
vt 0.041958 0.648506
vt 0.352967 0.648861
vt 0.352845 0.755290
vt 0.042080 0.542076
vt 0.353088 0.542431
vt 0.466073 0.419080
vt 0.662618 0.329228
vt 0.657605 0.343581
vt 0.472678 0.432774
vt 0.856450 0.396922
vt 0.851437 0.411276
vt 0.879540 0.803730
vt 0.682994 0.893582
vt 0.688007 0.879229
vt 0.872935 0.790036
vt 0.489162 0.825887
vt 0.494175 0.811534
vt 0.404983 0.626606
vt 0.672806 0.611405
vt 0.940630 0.596204
vt 0.042201 0.435647
vt 0.353210 0.436002
vt 0.041594 0.967795
vt 0.041715 0.861365
vt 0.352724 0.861720
vt 0.352603 0.968150
vt 0.480481 0.818139
vt 0.390629 0.621593
vt 0.458324 0.427761
vt 0.865131 0.404671
vt 0.954983 0.601217
vt 0.887288 0.795049
vt 0.694612 0.892923
vt 0.954324 0.589599
vt 0.651000 0.329887
vt 0.391289 0.633211
vn 0.382684 0.000000 -0.923879
vn 0.382684 0.000000 -0.923879
vn 0.382684 0.000000 -0.923879
vn 0.382684 0.000000 -0.923879
vn -0.382683 0.000000 -0.923880
vn -0.382683 0.000000 -0.923880
vn -0.382683 0.000000 -0.923880
vn -0.382683 0.000000 -0.923880
vn -0.923880 0.000000 -0.382682
vn -0.923880 0.000000 -0.382682
vn -0.923880 0.000000 -0.382682
vn -0.923880 0.000000 -0.382682
vn -0.923880 0.000000 0.382682
vn -0.923880 0.000000 0.382682
vn -0.923880 0.000000 0.382682
vn -0.923880 0.000000 0.382682
vn -0.382683 0.000000 0.923880
vn -0.382683 0.000000 0.923880
vn -0.382683 0.000000 0.923880
vn -0.382683 0.000000 0.923880
vn 0.382684 0.000000 0.923879
vn 0.382684 0.000000 0.923879
vn 0.382684 0.000000 0.923879
vn 0.382684 0.000000 0.923879
vn 0.923879 0.000000 0.382685
vn 0.923879 0.000000 0.382685
vn 0.923879 0.000000 0.382685
vn 0.923879 0.000000 0.382685
vn 0.923879 0.000000 -0.382685
vn 0.923879 0.000000 -0.382685
vn 0.923879 0.000000 -0.382685
vn 0.923879 0.000000 -0.382685
vn -0.000000 1.000000 0.000000
vn 0.000000 1.000000 0.000000
vn -0.000000 1.000000 -0.000000
vn 0.000000 1.000000 0.000000
vn 0.000000 1.000000 0.000000
vn 0.000000 1.000000 -0.000000
vn 0.000000 1.000000 -0.000000
vn -0.000000 1.000000 -0.000000
vn -0.000000 1.000000 -0.000000
vn 0.000000 -1.000000 0.000000
vn 0.000000 -1.000000 0.000000
vn 0.000000 -1.000000 0.000000
vn 0.000000 -1.000000 0.000000
vn 0.000000 -1.000000 0.000000
vn 0.000000 -1.000000 0.000000
vn 0.000000 -1.000000 0.000000
vn 0.000000 -1.000000 0.000000
vn 0.000000 -1.000000 0.000000
vn 0.000000 -1.000000 0.000000
vn 0.000000 -1.000000 0.000000
vn 0.000000 -1.000000 0.000000
vn 0.000000 -1.000000 0.000000
vn 0.000000 -1.000000 0.000000
vn 0.000000 -1.000000 0.000000
vn 0.000000 -1.000000 0.000000
vn 0.000000 -1.000000 0.000000
vn 0.000000 -1.000000 0.000000
vn 0.000000 -1.000000 0.000000
vn 0.000000 -1.000000 0.000000
vn 0.000000 -1.000000 0.000000
vn 0.000000 -1.000000 0.000000
vn 0.000000 -1.000000 0.000000
vn 0.000000 -1.000000 0.000000
vn 0.000000 -1.000000 0.000000
vn 0.000000 -1.000000 0.000000
vn 0.000000 -1.000000 0.000000
vn 0.000000 -1.000000 0.000000
vn 0.000000 -1.000000 0.000000
vn 0.000000 -1.000000 0.000000
vn 0.000000 -1.000000 0.000000
vn 0.000000 -1.000000 0.000000
vn 0.382684 0.000000 -0.923879
vn 0.382684 0.000000 -0.923879
vn 0.382684 0.000000 -0.923879
vn 0.382684 0.000000 -0.923879
vn -0.382683 0.000000 -0.923880
vn -0.382683 0.000000 -0.923880
vn -0.382683 0.000000 -0.923880
vn -0.382683 0.000000 -0.923880
vn -0.923880 0.000000 -0.382683
vn -0.923880 0.000000 -0.382683
vn -0.923880 0.000000 -0.382683
vn -0.923880 0.000000 -0.382683
vn -0.923880 0.000000 0.382683
vn -0.923880 0.000000 0.382683
vn -0.923880 0.000000 0.382683
vn -0.923880 0.000000 0.382683
vn -0.382683 0.000000 0.923880
vn -0.382683 0.000000 0.923880
vn -0.382683 0.000000 0.923880
vn -0.382683 0.000000 0.923880
vn 0.382684 0.000000 0.923879
vn 0.382684 0.000000 0.923879
vn 0.382684 0.000000 0.923879
vn 0.382684 0.000000 0.923879
vn 0.923879 0.000000 0.382684
vn 0.923879 0.000000 0.382684
vn 0.923879 0.000000 0.382684
vn 0.923879 0.000000 0.382684
vn 0.923879 0.000000 -0.382684
vn 0.923879 0.000000 -0.382684
vn 0.923879 0.000000 -0.382684
vn 0.923879 0.000000 -0.382684
s off
g Table TableChair
usemtl initialShadingGroup
f 9/12/1 1/11/2 2/28/3 10/29/4
f 2/28/5 3/1/6 11/4/7 10/29/8
f 3/1/9 4/2/10 12/3/11 11/4/12
f 4/2/13 5/5/14 13/6/15 12/3/16
f 5/30/17 6/31/18 14/32/19 13/33/20
f 6/31/21 7/7/22 15/10/23 14/32/24
f 7/7/25 8/8/26 16/9/27 15/10/28
f 8/8/29 1/11/30 9/12/31 16/9/32
s 1
f 25/24/33 26/25/34 27/26/35
f 26/25/34 28/16/36 27/26/35
f 28/16/36 29/15/37 27/26/35
f 29/15/37 30/18/38 27/26/35
f 30/18/38 31/27/39 27/26/35
f 31/27/39 32/22/40 27/26/35
f 32/22/40 33/21/41 27/26/35
f 33/21/41 25/24/33 27/26/35
s off
f 9//42 10//43 18//44 17//45
f 10//46 11//47 19//48 18//49
f 11//50 12//51 20//52 19//53
f 12//54 13//55 21//56 20//57
f 13//58 14//59 22//60 21//61
f 14//62 15//63 23//64 22//65
f 15//66 16//67 24//68 23//69
f 16//70 9//71 17//72 24//73
f 17/34/74 18/43/75 26/25/76 25/24/77
f 18/35/78 19/36/79 28/16/80 26/25/81
f 19/13/82 20/42/83 29/15/84 28/16/85
f 20/14/86 21/17/87 30/18/88 29/15/89
f 21/37/90 22/41/91 31/27/92 30/18/93
f 22/38/94 23/39/95 32/22/96 31/27/97
f 23/19/98 24/40/99 33/21/100 32/22/101
f 24/20/102 17/23/103 25/24/104 33/21/105
