# This file uses centimeters as units for non-parametric coordinates.

mtllib Door_sm_UV.mtl
g default
v 5.048616 2.393593 6.471509
v 3.048616 2.393593 6.471509
v 5.048616 3.044986 6.471509
v 3.048616 3.044986 6.471509
v 5.048616 3.044986 6.621508
v 3.048616 3.044986 6.621508
v 5.048616 2.393593 6.621508
v 3.048616 2.393593 6.621508
v 3.372206 2.393593 6.471509
v 3.372206 3.044986 6.471509
v 3.372206 3.044986 6.621508
v 3.372206 2.393593 6.621508
v 4.744909 2.393593 6.471509
v 4.744909 3.044986 6.471509
v 4.744909 3.044986 6.621508
v 4.744909 2.393593 6.621508
v 5.048616 0.071281 6.621508
v 4.744909 0.071281 6.621508
v 4.744909 0.071281 6.471509
v 5.048616 0.071281 6.471509
v 3.372206 0.071281 6.621508
v 3.372206 0.071281 6.471509
v 3.048616 0.071281 6.621508
v 3.048616 0.071281 6.471509
vt 0.051895 0.793757
vt 0.119583 0.793826
vt 0.119436 0.939003
vt 0.051748 0.938935
vt 0.493502 0.938749
vt 0.425424 0.938865
vt 0.425173 0.792852
vt 0.493251 0.792735
vt 0.425374 0.939314
vt 0.425522 0.794136
vt 0.497641 0.794209
vt 0.497494 0.939387
vt 0.117474 0.793379
vt 0.117724 0.939393
vt 0.045189 0.939517
vt 0.044939 0.793504
vt 0.424281 0.272291
vt 0.492359 0.272175
vt 0.052420 0.276177
vt 0.120108 0.276246
vt 0.044047 0.272943
vt 0.116581 0.272819
vt 0.426046 0.276556
vt 0.498166 0.276629
vn 0.000000 0.000000 -1.000000
vn 0.000000 0.000000 -1.000000
vn 0.000000 0.000000 -1.000000
vn 0.000000 0.000000 -1.000000
vn 0.000000 1.000000 0.000000
vn 0.000000 1.000000 0.000000
vn 0.000000 1.000000 0.000000
vn 0.000000 1.000000 0.000000
vn 0.000000 0.000000 1.000000
vn 0.000000 0.000000 1.000000
vn 0.000000 0.000000 1.000000
vn 0.000000 0.000000 1.000000
vn -1.000000 0.000000 0.000000
vn -1.000000 0.000000 0.000000
vn -1.000000 0.000000 0.000000
vn -1.000000 0.000000 0.000000
vn 1.000000 0.000000 0.000000
vn 1.000000 0.000000 0.000000
vn 1.000000 0.000000 0.000000
vn 1.000000 0.000000 0.000000
vn -0.000000 0.000000 -1.000000
vn -0.000000 0.000000 -1.000000
vn -0.000000 0.000000 -1.000000
vn -0.000000 0.000000 -1.000000
vn 0.000000 1.000000 0.000000
vn 0.000000 1.000000 0.000000
vn 0.000000 1.000000 0.000000
vn 0.000000 1.000000 0.000000
vn 0.000000 0.000000 1.000000
vn 0.000000 0.000000 1.000000
vn 0.000000 0.000000 1.000000
vn 0.000000 0.000000 1.000000
vn -0.000000 0.000000 -1.000000
vn -0.000000 0.000000 -1.000000
vn -0.000000 0.000000 -1.000000
vn -0.000000 0.000000 -1.000000
vn 0.000000 1.000000 0.000000
vn 0.000000 1.000000 0.000000
vn 0.000000 1.000000 0.000000
vn 0.000000 1.000000 0.000000
vn 0.000000 0.000000 1.000000
vn 0.000000 0.000000 1.000000
vn 0.000000 0.000000 1.000000
vn 0.000000 0.000000 1.000000
vn 0.000000 0.000000 1.000000
vn 0.000000 0.000000 1.000000
vn 0.000000 0.000000 1.000000
vn 0.000000 0.000000 1.000000
vn -0.000000 0.000000 -1.000000
vn -0.000000 0.000000 -1.000000
vn -0.000000 0.000000 -1.000000
vn -0.000000 0.000000 -1.000000
vn 1.000000 0.000000 0.000000
vn 1.000000 0.000000 0.000000
vn 1.000000 0.000000 0.000000
vn 1.000000 0.000000 0.000000
vn 0.000000 0.000000 1.000000
vn 0.000000 0.000000 1.000000
vn 0.000000 0.000000 1.000000
vn 0.000000 0.000000 1.000000
vn -1.000000 0.000000 0.000000
vn -1.000000 0.000000 0.000000
vn -1.000000 0.000000 0.000000
vn -1.000000 0.000000 0.000000
vn -0.000000 0.000000 -1.000000
vn -0.000000 0.000000 -1.000000
vn -0.000000 0.000000 -1.000000
vn -0.000000 0.000000 -1.000000
s off
g Door_sm_UV:StraightWallStraightWall9
usemtl Door_sm_UV:initialShadingGroup
f 1/1/1 13/2/2 14/3/3 3/4/4
f 3//5 14//6 15//7 5//8
f 5/5/9 15/6/10 16/7/11 7/8/12
f 2//13 8//14 6//15 4//16
f 7//17 1//18 3//19 5//20
f 10/9/21 9/10/22 2/11/23 4/12/24
f 11//25 10//26 4//27 6//28
f 12/13/29 11/14/30 6/15/31 8/16/32
f 14/3/33 13/2/34 9/10/35 10/9/36
f 15//37 14//38 10//39 11//40
f 16/7/41 15/6/42 11/14/43 12/13/44
f 7/8/45 16/7/46 18/17/47 17/18/48
f 13/2/49 1/1/50 20/19/51 19/20/52
f 1//53 7//54 17//55 20//56
f 12/13/57 8/16/58 23/21/59 21/22/60
f 8//61 2//62 24//63 23//64
f 2/11/65 9/10/66 22/23/67 24/24/68
